<svg width="351" height="271" viewBox="0 0 351 271" fill="none" xmlns="http://www.w3.org/2000/svg">
<g clip-path="url(#clip0_237_2279)">
<path d="M19.2153 52.3285C19.2153 52.3285 10.0425 55.1455 18.4665 74.8648C26.8905 94.6781 33.0681 104.538 33.0681 104.538C33.0681 104.538 34.4721 109.139 30.7281 109.515C26.9841 109.984 18.8409 108.106 16.8753 112.519C14.8161 117.121 17.9985 121.816 24.6441 126.229C31.3833 130.642 45.7041 140.784 47.0145 141.723C48.3249 142.662 49.4481 144.822 46.9209 145.479C44.3937 146.23 25.8609 146.887 26.7033 155.714C27.5457 164.541 48.2313 173.649 50.4777 174.776C52.7241 175.809 53.1921 176.842 52.9113 178.063C52.6305 179.283 46.3593 179.002 41.1177 179.377C35.8761 179.753 29.7921 181.161 30.7281 186.232C31.6641 191.303 43.5513 202.571 73.7841 207.548L88.0113 208.956L96.5289 197.406C113.283 171.583 113.002 155.245 109.914 151.113C106.825 146.981 101.677 150.55 97.8393 154.118C94.0017 157.78 89.9769 162.663 88.8537 162.006C87.7305 161.348 87.3561 160.315 88.1049 157.968C88.8537 155.62 96.0609 134.117 90.1641 127.544C84.2673 120.971 71.1633 134.211 68.9169 135.619C66.6705 137.028 65.9217 134.68 66.1089 133.084C66.2961 131.488 68.5425 114.022 69.8529 106.134C71.1633 98.2463 69.8529 92.7062 65.0793 91.1098C60.4929 89.5135 56.3745 96.8378 53.4729 99.2793C50.5713 101.815 48.2313 97.589 48.2313 97.589C48.2313 97.589 45.0489 86.3208 36.2505 66.7893C27.4521 47.1639 19.0281 52.2346 19.0281 52.2346" fill="#DBE5FF"/>
<path d="M88.5729 212.525C82.1145 198.064 71.1633 172.241 61.6161 150.08C52.0689 127.919 43.3641 107.918 36.9993 93.4574C33.8169 86.227 31.2897 80.4051 29.4177 76.3673C28.5753 74.3954 27.8265 72.7991 27.3585 71.6723C27.1713 71.1088 26.9841 70.7332 26.7969 70.4515C26.7033 70.1698 26.6097 70.0759 26.6097 70.0759C26.6097 70.0759 26.7033 70.1698 26.7969 70.4515C26.8905 70.7332 27.0777 71.1088 27.3585 71.6723C27.8265 72.7052 28.5753 74.3015 29.5113 76.2734C31.3833 80.3112 34.0041 86.1331 37.1865 93.3635C43.6449 107.824 52.3497 127.825 61.8969 149.986C71.4441 172.147 82.3953 197.97 88.7601 212.431" fill="#0D53FC"/>
<path d="M28.1073 115.618C28.1073 115.618 28.4817 115.712 29.0433 115.994C29.6985 116.275 30.5409 116.651 31.6641 117.121C33.8169 118.06 36.8121 119.468 39.9945 121.064C43.1769 122.661 46.0785 124.069 48.2313 125.196C49.2609 125.666 50.1033 126.135 50.7585 126.417C51.3201 126.699 51.6945 126.886 51.6945 126.886C51.6945 126.886 51.3201 126.792 50.7585 126.511C50.1033 126.229 49.2609 125.853 48.1377 125.384C45.9849 124.351 43.0833 122.942 39.8073 121.346C36.6249 119.75 33.7233 118.341 31.4769 117.214C30.4473 116.745 29.6049 116.275 28.9497 115.994C28.4817 115.9 28.1073 115.712 28.1073 115.618Z" fill="#0D53FC"/>
<path d="M58.9538 112.372C62.3012 104.728 64.9381 98.4972 64.8434 98.4555C64.7488 98.4138 61.9585 104.577 58.6111 112.221C55.2637 119.865 52.6268 126.095 52.7215 126.137C52.8161 126.179 55.6064 120.016 58.9538 112.372Z" fill="#0D53FC"/>
<path d="M65.9217 160.785C65.9217 160.785 66.1089 160.503 66.5769 159.94C67.0449 159.376 67.7001 158.625 68.4489 157.78C70.0401 155.902 72.0993 153.367 74.3457 150.456C76.5921 147.545 78.5577 144.822 79.9617 142.85C80.6169 141.911 81.1785 141.159 81.6465 140.502C82.0209 139.939 82.3017 139.657 82.3017 139.657C82.3017 139.657 82.1145 140.033 81.8337 140.596C81.4593 141.159 80.9913 142.005 80.3361 143.037C79.0257 145.103 77.0601 147.826 74.8137 150.737C72.5673 153.648 70.4145 156.184 68.8233 158.062C67.9809 159.001 67.3257 159.658 66.8577 160.128C66.2025 160.597 65.9217 160.785 65.9217 160.785Z" fill="#0D53FC"/>
<path d="M41.5857 156.184C41.5857 156.184 41.9601 156.184 42.5217 156.277C43.2705 156.371 44.1129 156.465 45.1425 156.653C47.3889 157.029 50.3841 157.498 53.7537 158.062C57.1233 158.625 60.1185 159.188 62.3649 159.658C63.3945 159.846 64.2369 160.034 64.9857 160.221C65.6409 160.315 65.9217 160.409 65.9217 160.503C65.9217 160.503 65.5473 160.503 64.9857 160.409C64.2369 160.315 63.3945 160.221 62.3649 160.034C60.1185 159.658 57.1233 159.188 53.7537 158.625C50.3841 158.062 47.3889 157.498 45.1425 157.029C44.1129 156.841 43.2705 156.653 42.5217 156.465C41.8665 156.371 41.5857 156.277 41.5857 156.184Z" fill="#0D53FC"/>
<path d="M49.2609 188.298C49.2609 188.298 49.7289 188.298 50.4777 188.392C51.3201 188.486 52.4433 188.673 53.8473 188.861C56.6553 189.331 60.5865 189.894 64.8921 190.645C69.1977 191.397 73.1289 192.054 75.9369 192.523C77.2473 192.805 78.3705 192.993 79.3065 193.181C80.0553 193.369 80.5233 193.462 80.5233 193.462C80.5233 193.462 80.0553 193.462 79.3065 193.369C78.4641 193.275 77.3409 193.087 75.9369 192.899C73.1289 192.43 69.1977 191.866 64.8921 191.115C60.5865 190.364 56.6553 189.706 53.8473 189.237C52.5369 188.955 51.4137 188.767 50.4777 188.58C49.7289 188.392 49.2609 188.298 49.2609 188.298Z" fill="#0D53FC"/>
<path d="M79.7745 193.087C79.7745 193.087 80.0553 192.711 80.5233 191.96C81.0849 191.209 81.8337 190.27 82.7697 189.049C84.6417 186.608 87.2625 183.227 89.9769 179.471C92.6913 175.715 95.1249 172.147 96.8097 169.612C97.6521 168.391 98.3073 167.358 98.8689 166.607C99.3369 165.855 99.6177 165.48 99.6177 165.574C99.6177 165.574 99.4305 166.043 98.9625 166.701C98.4945 167.452 97.8393 168.485 96.9969 169.799C95.3121 172.429 92.9721 175.903 90.2577 179.753C87.5433 183.509 84.9225 186.889 82.9569 189.237C82.0209 190.458 81.1785 191.397 80.6169 192.054C80.1489 192.805 79.7745 193.087 79.7745 193.087Z" fill="#0D53FC"/>
<path d="M237.411 255.528C222.735 237.477 225.276 212.647 232.02 191.558C233.106 188.064 233.817 184.171 236.423 181.503C239.03 178.835 243.583 177.894 246.33 180.241C248.587 182.253 248.891 185.656 249.618 188.596C250.657 192.502 252.751 196.125 255.666 198.91C257.588 200.729 260.178 202.25 262.789 201.632C266.339 200.795 267.899 196.657 268.895 193.137C270.758 186.55 272.531 179.937 274.394 173.349C275.39 169.83 276.41 166.221 278.437 163.191C280.463 160.162 283.79 157.7 287.381 157.753C290.971 157.805 294.582 160.887 294.333 164.522C294.195 166.043 293.491 167.5 293.173 168.97C292.855 170.439 293.116 172.27 294.341 173.108C295.656 173.972 297.314 173.276 298.677 172.593C303.303 170.016 307.129 166.136 310.749 162.295C314.395 158.364 317.976 154.316 322.318 151.365C326.751 148.439 332.126 146.661 337.367 147.771C342.492 148.945 347.033 153.561 346.865 158.976C346.724 164.3 342.41 168.528 338.106 171.685C331.734 176.299 324.639 180.024 317.258 182.691C315.947 183.194 314.455 183.645 313.712 184.895C312.237 187.009 313.827 190 315.941 191.483C318.3 193.134 321.261 193.689 323.889 194.733C326.581 195.894 329.224 197.919 329.476 200.819C329.897 204.842 325.85 207.78 322.161 209.456C314.807 212.716 306.923 214.751 298.881 215.278C295.986 215.523 293.052 215.561 290.468 216.772C287.885 217.984 285.729 220.781 286.277 223.669C286.824 226.556 289.865 228.207 292.697 228.53C295.555 228.763 298.397 228.015 301.292 227.771C306.67 227.359 312.814 229.41 314.769 234.555C316.052 237.945 315.16 241.787 313.134 244.816C311.223 247.781 308.243 250.049 305.339 252.047C295.009 258.942 282.91 263.478 270.544 264.133C258.204 264.698 247.53 262.814 237.411 255.528Z" fill="#DBE5FF"/>
<path d="M232.632 271.257C235.844 263.004 240.456 253.592 246.651 243.754C252.846 233.916 260.534 223.627 268.839 213.222C270.944 210.604 273.024 208.077 275.103 205.55C277.183 203.023 279.173 200.47 281.382 198.175C285.619 193.533 290.115 189.356 294.419 185.514C298.813 181.698 303.015 178.217 307.05 174.981C311.085 171.745 314.927 168.844 318.462 166.343C325.646 161.276 331.87 157.886 336.255 155.823C338.402 154.779 340.203 153.928 341.309 153.464C341.862 153.232 342.299 153.065 342.646 152.871C342.968 152.768 343.084 152.704 343.084 152.704C343.084 152.704 342.968 152.768 342.621 152.962C342.274 153.155 341.836 153.322 341.283 153.555C340.152 154.109 338.467 154.895 336.294 156.03C331.973 158.208 325.725 161.689 318.63 166.781C315.096 169.282 311.343 172.209 307.308 175.445C303.273 178.681 299.072 182.162 294.678 185.978C290.374 189.82 285.903 193.907 281.64 198.639C279.521 200.96 277.467 203.397 275.478 205.95C273.398 208.477 271.318 211.004 269.213 213.621C260.818 224.001 253.13 234.29 246.961 244.037C240.766 253.875 236.063 263.262 232.877 271.424" fill="#0D53FC"/>
<path d="M281.626 198.141C281.626 198.141 281.599 197.547 281.7 196.502C281.801 195.457 281.94 193.935 282.245 192.168C282.702 188.491 283.632 183.486 284.535 177.887C285.529 172.314 286.279 167.257 286.735 163.58C286.95 161.787 287.089 160.265 287.19 159.22C287.291 158.175 287.354 157.608 287.444 157.633C287.444 157.633 287.471 158.227 287.486 159.207C287.476 160.278 287.363 161.71 287.212 163.619C286.846 167.322 286.186 172.404 285.193 177.977C284.225 183.46 283.32 188.375 282.632 192.181C282.352 193.858 282.123 195.354 281.906 196.464C281.78 197.599 281.716 198.167 281.626 198.141Z" fill="#0D53FC"/>
<path d="M329.395 202.622C329.369 202.712 328.739 202.532 327.543 202.287C326.347 202.043 324.585 201.734 322.463 201.322C318.193 200.589 312.201 199.753 305.656 199.148C299.021 198.518 293.055 198.274 288.697 198.197C286.473 198.146 284.725 198.133 283.568 198.095C282.295 198.12 281.639 198.03 281.639 198.03C281.639 198.03 282.346 197.94 283.554 197.798C284.737 197.747 286.511 197.67 288.76 197.631C293.144 197.617 299.135 197.771 305.77 198.402C312.405 199.032 318.397 199.868 322.616 200.782C324.738 201.193 326.475 201.592 327.645 201.927C328.79 202.351 329.395 202.622 329.395 202.622Z" fill="#0D53FC"/>
<path d="M247.597 243.091C247.597 243.091 247.558 242.884 247.48 242.472C247.427 241.969 247.31 241.349 247.128 240.614C246.905 238.989 246.5 236.629 246.159 233.702C245.476 227.846 244.749 219.734 244.046 210.848C243.369 201.872 242.732 193.785 242.139 187.956C241.862 185.144 241.573 182.72 241.376 181.004C241.31 180.205 241.283 179.612 241.23 179.109C241.152 178.696 241.229 178.425 241.229 178.425C241.229 178.425 241.268 178.631 241.346 179.044C241.399 179.547 241.516 180.166 241.698 180.901C241.921 182.526 242.325 184.886 242.667 187.814C243.35 193.669 244.077 201.782 244.78 210.668C245.457 219.644 246.094 227.73 246.687 233.56C246.963 236.371 247.252 238.796 247.449 240.511C247.516 241.311 247.543 241.904 247.595 242.407C247.558 242.884 247.597 243.091 247.597 243.091Z" fill="#0D53FC"/>
<path d="M313.314 240.814C313.314 240.814 313.108 240.852 312.607 240.904C312.106 240.955 311.424 240.955 310.717 241.045C308.943 241.122 306.578 241.225 303.646 241.264C297.642 241.495 289.453 241.881 280.377 242.305C271.3 242.73 263.021 243.09 257.068 243.141C254.137 243.18 251.707 243.167 250.048 243.18C249.276 243.154 248.595 243.154 248.119 243.115C247.643 243.076 247.438 243.115 247.463 243.025C247.463 243.025 247.669 242.986 248.17 242.935C248.672 242.883 249.353 242.883 250.06 242.793C251.834 242.716 254.2 242.613 257.131 242.575C263.135 242.343 271.324 241.957 280.401 241.533C289.477 241.108 297.756 240.748 303.709 240.697C306.641 240.659 309.071 240.672 310.729 240.659C311.501 240.685 312.092 240.659 312.658 240.723C313.108 240.852 313.314 240.814 313.314 240.814Z" fill="#0D53FC"/>
<path d="M85.2164 260.257C98.3596 246.988 98.1943 226.754 94.3918 209.256C93.7305 206.353 93.4825 203.202 91.664 200.88C89.7628 198.558 86.2083 197.397 83.8111 199.139C81.8273 200.548 81.3313 203.285 80.5047 205.607C79.4301 208.675 77.3635 211.412 74.801 213.485C73.1478 214.812 70.9159 215.807 68.8494 215.144C66.0389 214.232 65.1296 210.749 64.6336 207.846C63.6417 202.373 62.7324 196.9 61.7405 191.509C61.2445 188.607 60.6659 185.621 59.2606 182.968C57.8554 180.397 55.3755 178.158 52.4824 177.909C49.5892 177.66 46.4481 179.899 46.3654 182.802C46.3654 184.046 46.7787 185.207 46.9441 186.451C47.1094 187.695 46.7787 189.104 45.7041 189.685C44.6295 190.265 43.307 189.602 42.2324 188.938C38.6779 186.534 35.9501 183.134 33.3876 179.651C30.8251 176.251 28.2625 172.685 24.9561 169.948C21.6496 167.211 17.4339 165.387 13.2181 165.885C9.00239 166.382 5.03464 169.782 4.70399 174.094C4.37334 178.407 7.51448 182.138 10.7383 185.041C15.5327 189.27 20.9057 192.836 26.6093 195.49C27.6839 195.987 28.7585 196.485 29.3371 197.48C30.3291 199.304 28.8412 201.626 27.0226 202.539C24.9561 203.7 22.5589 203.866 20.327 204.529C18.0952 205.192 15.8633 206.685 15.3673 209.007C14.706 212.241 17.7645 214.895 20.575 216.471C26.196 219.705 32.3956 221.944 38.7606 223.022C41.0751 223.437 43.3896 223.685 45.4562 224.929C47.44 226.09 49.0106 228.578 48.3493 230.817C47.688 233.056 45.1255 234.217 42.811 234.217C40.4965 234.217 38.2646 233.388 35.9501 232.973C31.6517 232.227 26.5266 233.388 24.6254 237.368C23.3855 239.939 23.7988 243.173 25.1214 245.744C26.444 248.315 28.5932 250.305 30.8251 252.13C38.5952 258.515 47.936 263.076 57.8554 264.652C67.7748 265.979 76.5369 265.315 85.2164 260.257Z" fill="#E8505B"/>
<path d="M87.7789 273.276C85.8777 266.393 82.8192 258.432 78.6035 250.056C74.3877 241.681 69.0148 232.807 63.1458 223.768C61.6579 221.529 60.17 219.29 58.7647 217.051C57.2768 214.895 55.8716 212.656 54.301 210.666C51.2425 206.602 48.0187 202.87 44.7949 199.47C41.5711 196.07 38.43 192.919 35.4541 190.017C32.4783 187.114 29.6678 184.46 26.94 182.138C21.567 177.494 16.8553 174.343 13.4662 172.27C11.8129 171.192 10.4903 170.446 9.58107 169.948C9.16776 169.699 8.83711 169.533 8.58913 169.368C8.34115 169.202 8.25848 169.202 8.25848 169.202C8.25848 169.202 8.34115 169.285 8.58913 169.45C8.83711 169.616 9.16776 169.782 9.58107 170.031C10.4903 170.529 11.8129 171.358 13.4662 172.436C16.7726 174.592 21.4843 177.826 26.7747 182.47C29.4199 184.792 32.2303 187.446 35.2062 190.348C38.182 193.251 41.3231 196.402 44.4643 199.802C47.6054 203.202 50.9119 206.934 53.8877 210.997C55.3756 212.988 56.8635 215.144 58.2687 217.383C59.7567 219.622 61.1619 221.778 62.6498 224.1C68.6014 233.139 73.9744 241.929 78.1075 250.305C82.3233 258.681 85.3817 266.559 87.283 273.442" fill="#263238"/>
<path d="M54.1357 210.583C54.1357 210.583 54.2184 210.085 54.2184 209.256C54.2184 208.427 54.2184 207.183 54.1357 205.69C54.0531 202.705 53.7224 198.558 53.3918 194.08C53.0611 189.519 52.8131 185.456 52.7305 182.47C52.7305 180.977 52.6478 179.734 52.6478 178.904C52.6478 178.075 52.6478 177.577 52.5652 177.577C52.5652 177.577 52.4825 178.075 52.3998 178.904C52.3172 179.734 52.3172 180.977 52.3172 182.47C52.3172 185.456 52.4825 189.602 52.8131 194.163C53.1438 198.641 53.4744 202.705 53.7224 205.773C53.8051 207.183 53.8877 208.344 53.9704 209.339C54.0531 210.168 54.1357 210.583 54.1357 210.583Z" fill="#263238"/>
<path d="M15.3673 210.417C15.3673 210.417 15.9459 210.417 16.8552 210.334C17.8471 210.251 19.2524 210.085 20.9883 210.002C24.4601 209.753 29.3371 209.588 34.7101 209.588C40.0831 209.67 44.8775 209.836 48.4319 210.168C50.1678 210.334 51.5731 210.417 52.565 210.5C53.5569 210.583 54.0529 210.666 54.0529 210.583C54.0529 210.583 53.5569 210.417 52.565 210.251C51.5731 210.085 50.1678 209.919 48.4319 209.753C44.9601 209.339 40.0831 209.09 34.7101 209.007C29.3371 209.007 24.4601 209.256 20.9883 209.588C19.2524 209.753 17.8471 209.919 16.8552 210.085C15.9459 210.334 15.3673 210.417 15.3673 210.417Z" fill="#263238"/>
<path d="M78.0248 249.393C78.0248 249.393 78.1075 249.227 78.1901 248.895C78.2728 248.481 78.4381 247.983 78.6034 247.403C78.9341 246.159 79.3474 244.251 79.926 241.929C80.918 237.285 82.1579 230.817 83.3978 223.685C84.6377 216.553 85.795 210.085 86.7043 205.441C87.2002 203.202 87.5309 201.295 87.7789 199.968C87.8615 199.387 88.0269 198.89 88.1095 198.475C88.1922 198.143 88.1922 197.978 88.1922 197.978C88.1922 197.978 88.1095 198.143 88.0269 198.475C87.9442 198.89 87.7789 199.387 87.6136 199.968C87.2829 201.212 86.8696 203.119 86.291 205.441C85.299 210.085 84.0591 216.553 82.8192 223.685C81.5793 230.817 80.422 237.285 79.5127 241.929C79.0167 244.168 78.6861 246.076 78.4381 247.403C78.3555 247.983 78.1901 248.481 78.1075 248.895C78.0248 249.227 78.0248 249.393 78.0248 249.393Z" fill="#263238"/>
<path d="M25.3694 242.427C25.3694 242.427 25.5347 242.51 25.8654 242.51C26.2787 242.593 26.7747 242.676 27.436 242.759C28.8412 242.925 30.7424 243.173 33.0569 243.505C37.8513 244.168 44.3816 245.081 51.6558 246.159C58.93 247.237 65.543 248.149 70.2547 248.647C72.6518 248.895 74.5531 249.144 75.9583 249.227C76.5369 249.31 77.1156 249.31 77.5289 249.31C77.8595 249.31 78.1075 249.31 78.1075 249.31C78.1075 249.31 77.9422 249.227 77.6115 249.227C77.1982 249.144 76.7023 249.061 76.041 248.978C74.6357 248.812 72.7345 248.564 70.42 248.232C65.6256 247.569 59.0953 246.656 51.8211 245.578C44.5469 244.5 37.934 243.588 33.2223 243.09C30.8251 242.842 28.9239 242.593 27.5186 242.51C26.94 242.427 26.3614 242.427 25.948 242.427C25.5347 242.427 25.3694 242.427 25.3694 242.427Z" fill="#263238"/>
<path d="M236.085 211.613C222.058 203.573 217.579 186.636 216.768 171.143C216.659 168.566 216.147 165.877 217.139 163.517C218.2 161.138 220.91 159.346 223.313 160.246C225.295 160.964 226.335 163.135 227.557 164.883C229.156 167.196 231.51 169.004 234.128 170.142C235.814 170.868 237.909 171.182 239.487 170.15C241.63 168.738 241.597 165.619 241.349 163.08C240.93 158.28 240.442 153.498 240.042 148.767C239.795 146.228 239.598 143.601 240.168 141.06C240.758 138.588 242.322 136.144 244.686 135.267C247.051 134.39 250.19 135.533 250.922 137.937C251.206 138.976 251.125 140.041 251.27 141.119C251.416 142.196 252.014 143.296 253.046 143.533C254.078 143.769 255.033 142.909 255.781 142.106C258.207 139.275 259.714 135.804 261.063 132.303C262.432 128.87 263.763 125.299 265.905 122.249C268.048 119.198 271.159 116.699 274.801 116.139C278.442 115.579 282.539 117.5 283.8 121.025C285.06 124.55 283.283 128.393 281.248 131.563C278.201 136.205 274.518 140.426 270.35 143.962C269.565 144.626 268.779 145.29 268.522 146.255C268.108 148.008 269.883 149.603 271.613 149.944C273.608 150.436 275.651 150.019 277.671 150.057C279.69 150.095 281.898 150.825 282.843 152.649C284.135 155.197 282.181 158.121 280.188 160.087C276.222 164.089 271.545 167.393 266.465 169.767C264.622 170.649 262.742 171.392 261.297 172.909C259.901 174.338 259.155 176.779 260.219 178.496C261.283 180.212 263.693 180.589 265.63 180.054C267.567 179.518 269.245 178.309 271.087 177.427C274.514 175.809 279.068 175.593 281.568 178.477C283.192 180.337 283.584 183.134 283.064 185.587C282.544 188.04 281.199 190.199 279.748 192.239C274.703 199.37 267.927 205.341 259.985 208.952C251.987 212.355 244.503 213.829 236.085 211.613Z" fill="#E8505B"/>
<path d="M236.905 223.093C236.926 216.904 237.67 209.547 239.287 201.576C240.905 193.604 243.377 184.95 246.227 176.041C246.962 173.827 247.696 171.612 248.362 169.417C249.115 167.272 249.78 165.076 250.641 163.05C252.274 158.949 254.121 155.086 256.043 151.499C257.966 147.913 259.876 144.554 261.705 141.441C263.534 138.328 265.281 135.461 267.034 132.89C270.472 127.768 273.697 124.045 276.061 121.529C277.198 120.246 278.135 119.317 278.783 118.691C279.072 118.387 279.311 118.172 279.481 117.976C279.65 117.78 279.72 117.761 279.72 117.761C279.72 117.761 279.669 117.849 279.5 118.045C279.33 118.241 279.091 118.456 278.802 118.76C278.154 119.386 277.236 120.385 276.098 121.668C273.823 124.234 270.617 128.026 267.248 133.129C265.564 135.681 263.817 138.548 261.988 141.661C260.16 144.774 258.249 148.133 256.396 151.7C254.542 155.267 252.626 159.149 251.063 163.232C250.271 165.239 249.518 167.384 248.853 169.579C248.118 171.794 247.434 173.92 246.718 176.204C243.799 185.131 241.307 193.717 239.759 201.669C238.141 209.64 237.379 216.928 237.358 223.117" fill="#263238"/>
<path d="M250.754 162.929C250.754 162.929 250.571 162.532 250.381 161.839C250.191 161.146 249.906 160.106 249.634 158.839C249.02 156.324 248.348 152.782 247.6 148.962C246.833 145.073 246.111 141.619 245.496 139.105C245.155 137.857 244.939 136.798 244.749 136.105C244.56 135.412 244.446 134.996 244.515 134.977C244.515 134.977 244.698 135.373 244.957 136.047C245.216 136.721 245.501 137.761 245.843 139.009C246.526 141.505 247.337 145.009 248.104 148.898C248.852 152.718 249.505 156.191 249.999 158.813C250.253 160.01 250.449 161 250.608 161.851C250.728 162.563 250.754 162.929 250.754 162.929Z" fill="#263238"/>
<path d="M283.128 153.85C283.128 153.85 282.645 153.984 281.866 154.124C281.017 154.284 279.805 154.47 278.335 154.801C275.376 155.394 271.261 156.38 266.769 157.619C262.296 158.928 258.326 160.172 255.43 161.268C254.017 161.806 252.861 162.2 252.051 162.497C251.241 162.795 250.845 162.979 250.826 162.91C250.826 162.91 251.203 162.657 251.994 162.29C252.786 161.923 253.922 161.461 255.336 160.922C258.143 159.776 262.164 158.444 266.636 157.135C271.128 155.896 275.262 154.979 278.24 154.455C279.729 154.193 280.942 154.007 281.809 153.917C282.626 153.914 283.128 153.85 283.128 153.85Z" fill="#263238"/>
<path d="M239.677 200.87C239.677 200.87 239.57 200.751 239.425 200.493C239.261 200.165 239.009 199.788 238.738 199.341C238.176 198.378 237.394 196.879 236.378 195.073C234.485 191.421 231.967 186.302 229.297 180.628C226.627 174.954 224.179 169.816 222.355 166.145C221.427 164.389 220.714 162.871 220.203 161.819C220.001 161.353 219.749 160.976 219.585 160.648C219.44 160.39 219.402 160.252 219.402 160.252C219.402 160.252 219.509 160.371 219.654 160.629C219.818 160.957 220.07 161.334 220.342 161.781C220.903 162.744 221.685 164.243 222.701 166.05C224.594 169.701 227.112 174.82 229.782 180.494C232.452 186.168 234.9 191.306 236.724 194.977C237.652 196.733 238.365 198.251 238.876 199.303C239.078 199.769 239.33 200.146 239.494 200.474C239.64 200.732 239.677 200.87 239.677 200.87Z" fill="#263238"/>
<path d="M282.105 182.918C282.105 182.918 281.985 183.025 281.709 183.102C281.382 183.266 280.986 183.45 280.452 183.672C279.315 184.134 277.783 184.78 275.923 185.591C272.066 187.251 266.815 189.519 260.979 192.096C255.144 194.674 249.823 196.961 245.998 198.464C244.05 199.224 242.518 199.87 241.362 200.264C240.897 200.467 240.413 200.6 240.067 200.696C239.791 200.772 239.584 200.829 239.584 200.829C239.584 200.829 239.703 200.722 239.979 200.645C240.306 200.481 240.702 200.297 241.236 200.076C242.373 199.613 243.905 198.967 245.765 198.156C249.622 196.496 254.873 194.228 260.709 191.651C266.544 189.073 271.865 186.786 275.691 185.284C277.638 184.523 279.171 183.877 280.327 183.483C280.791 183.28 281.275 183.147 281.621 183.052C281.966 182.956 282.105 182.918 282.105 182.918Z" fill="#263238"/>
<path d="M254.058 88.2682C256.959 86.0146 258.27 82.0707 257.615 78.4085C257.053 74.7464 254.713 71.5537 251.624 69.4879C250.22 68.5489 248.535 67.7976 246.851 68.2671C245.353 68.7367 244.23 70.2391 243.949 71.7415C243.668 73.3378 243.949 74.9342 244.511 76.4366C246.289 81.5073 249.003 86.2024 254.058 88.2682Z" fill="#455A64"/>
<path d="M258.738 97.001C264.447 91.7426 272.778 89.5828 280.266 91.3669C282.138 91.8365 284.29 92.8694 284.665 94.7474C284.946 96.7193 283.261 98.3157 281.576 99.3486C274.462 103.48 264.915 102.729 258.55 97.4705" fill="#455A64"/>
<path d="M286.256 56.3415C283.074 55.4964 279.61 56.2476 276.802 57.9379C273.994 59.6281 271.842 62.2573 270.063 64.9805C266.694 70.3329 265.477 77.5633 265.29 83.9486C272.31 83.6669 278.3 78.1267 281.202 75.1219C285.788 70.4268 291.123 59.0647 286.256 56.3415Z" fill="#455A64"/>
<path d="M248.161 106.673C248.535 105.922 249.284 105.358 249.939 104.044C251.25 101.32 253.028 97.3766 253.871 92.6815C254.713 87.9864 254.151 83.573 253.028 80.756C252.467 79.3475 251.811 78.2207 251.343 77.4694C250.875 76.8121 250.501 76.4365 250.501 76.4365C250.407 76.5304 251.624 78.0328 252.56 80.8499C253.59 83.6669 254.058 87.9864 253.215 92.4937C252.373 97.001 250.688 100.945 249.471 103.762" fill="#263238"/>
<path d="M248.067 106.767C249.003 105.546 250.22 103.95 251.718 102.072C254.807 98.0338 259.112 92.4936 263.886 86.4839C268.659 80.4742 273.058 75.0279 276.334 71.084C277.832 69.206 279.142 67.6097 280.078 66.4829C280.921 65.356 281.482 64.7926 281.389 64.6987C281.389 64.6987 280.827 65.2621 279.891 66.2951C278.955 67.328 277.551 68.8304 275.96 70.8023C272.684 74.6523 268.191 80.0047 263.324 86.0144C258.55 92.0241 254.339 97.6582 251.343 101.696C249.846 103.762 248.629 105.452 247.88 106.579" fill="#263238"/>
<path d="M275.866 95.5924C275.866 95.4985 275.398 95.4046 274.65 95.2168C274.275 95.1229 273.714 95.029 273.152 94.9351C272.59 94.8412 271.935 94.7473 271.186 94.7473C269.689 94.6534 267.91 94.6534 266.038 94.9351C264.073 95.2168 262.014 95.6863 259.861 96.5315C257.802 97.3766 255.836 98.4095 254.245 99.5363C252.654 100.663 251.343 101.79 250.314 102.917C249.752 103.386 249.378 103.95 249.003 104.419C248.629 104.889 248.348 105.264 248.067 105.64C247.599 106.297 247.693 106.673 247.693 106.673C247.786 106.767 248.535 105.264 250.594 103.292C251.624 102.259 252.935 101.227 254.526 100.1C256.117 99.0668 257.989 98.0339 260.048 97.2827C262.107 96.5315 264.166 95.968 266.038 95.6863C267.91 95.4046 269.689 95.3107 271.093 95.3107C274.088 95.3107 275.866 95.6863 275.866 95.5924Z" fill="#263238"/>
<path d="M221.391 404.153L96.0607 403.59C80.9911 403.496 68.8231 390.913 68.9167 375.325L70.3207 51.4585C70.4143 35.8709 82.6759 23.382 97.7455 23.4759L223.076 24.0393C238.146 24.1332 250.314 36.716 250.22 52.3037L248.816 376.17C248.722 391.664 236.461 404.247 221.391 404.153Z" fill="#263238"/>
<path d="M225.51 34.7441L200.425 34.6502C197.055 34.6502 194.341 37.4672 194.341 41.0355V45.6367C194.341 49.2049 191.626 52.022 188.257 52.022L139.304 51.6464C135.934 51.6464 133.22 48.7354 133.22 45.2611V40.6599C133.22 37.0916 130.506 34.2746 127.136 34.2746H118.338L96.4352 34.1807C85.5776 34.0868 76.6856 42.9135 76.592 53.9L75.2816 371.194C75.2816 382.086 83.9864 391.007 94.9376 391.101L223.918 391.664C234.776 391.758 243.668 382.931 243.762 371.945L245.072 54.6512C245.166 43.6647 236.367 34.838 225.51 34.7441Z" fill="#FAFAFA"/>
<path d="M83.8927 285.086C85.0159 284.241 138.93 260.39 138.93 260.39L75.9367 228.839L75.7495 279.639L83.8927 285.086Z" fill="#EBEBEB"/>
<path d="M87.1688 227.9L133.126 204.518L83.7992 177.005L76.124 178.977L75.9368 223.392L87.1688 227.9Z" fill="#E8505B"/>
<path opacity="0.7" d="M87.1688 227.9L133.126 204.518L83.7992 177.005L76.124 178.977L75.9368 223.392L87.1688 227.9Z" fill="white"/>
<path d="M77.8088 173.812L219.519 107.424L79.1192 61.4121L77.8088 173.812Z" fill="#EBEBEB"/>
<path d="M166.822 264.333L242.264 306.965V251.187L215.026 239.449L166.822 264.333Z" fill="#EBEBEB"/>
<path d="M86.2328 287.809L130.506 312.129L184.232 284.241L141.55 262.456L86.2328 287.809Z" fill="#EBEBEB"/>
<path d="M152.689 204.237L215.401 235.412L244.51 220.482L244.698 199.541L202.297 178.977L152.689 204.237Z" fill="#EBEBEB"/>
<path d="M88.4792 231.374L151.285 262.549L180.301 247.713L180.488 226.773L138.181 206.115L88.4792 231.374Z" fill="#EBEBEB"/>
<path d="M97.184 175.315L148.29 201.044L196.026 175.315L146.605 152.778L97.184 175.315Z" fill="#EBEBEB"/>
<path d="M196.026 339.455C196.026 339.455 195.745 339.361 195.09 338.985C194.528 338.61 193.592 338.14 192.469 337.483C190.129 336.168 186.759 334.196 182.36 331.567C173.562 326.403 160.738 318.89 144.733 309.5L143.984 309.031L144.826 308.655C158.773 301.519 175.527 292.974 194.154 283.49V284.616C182.734 278.513 170.379 271.846 157.369 264.897L156.246 264.24L157.462 263.582C173.468 255.131 190.69 246.023 208.568 236.633V237.947C206.602 237.008 204.543 235.881 202.484 234.848C159.615 213.063 119.929 192.874 87.9176 176.536L86.7944 175.972L87.9176 175.409C113.283 163.295 134.156 153.248 148.758 146.299C156.058 142.825 161.768 140.196 165.606 138.318C167.571 137.379 169.069 136.721 170.005 136.252C170.473 136.064 170.847 135.876 171.128 135.782C171.409 135.688 171.502 135.594 171.502 135.594C171.502 135.594 171.409 135.688 171.128 135.782C170.847 135.876 170.473 136.158 170.005 136.346C168.975 136.815 167.571 137.566 165.606 138.599C161.768 140.477 156.058 143.294 148.851 146.863C134.343 153.905 113.564 164.047 88.292 176.442V175.409C120.397 191.654 160.083 211.749 202.952 233.44C205.011 234.473 207.164 235.6 209.036 236.539L210.346 237.196L209.13 237.853C191.252 247.243 173.936 256.352 157.93 264.709V263.488C170.941 270.437 183.296 277.198 194.715 283.302L195.838 283.865L194.715 284.429C176.089 293.819 159.334 302.27 145.294 309.312V308.467C161.206 318.045 173.936 325.651 182.641 331.004C187.04 333.633 190.41 335.699 192.656 337.107C193.779 337.859 194.622 338.328 195.277 338.704C195.745 339.267 196.026 339.455 196.026 339.455Z" fill="#598AFF"/>
<path d="M184.981 105.64C184.981 96.2496 175.153 90.3338 165.138 95.0289C162.891 96.0618 161.019 97.8459 159.896 100.1C157.369 104.982 158.492 110.617 160.738 115.218L168.507 135.031C169.63 137.848 173.655 137.848 174.778 135.031L182.454 115.124C185.074 109.02 184.981 105.64 184.981 105.64ZM175.621 113.809C168.882 117.753 162.049 110.523 165.793 103.292C166.261 102.353 167.01 101.508 167.946 101.039C174.685 97.0947 181.518 104.325 177.774 111.556C177.212 112.495 176.463 113.34 175.621 113.809Z" fill="#88A5EC"/>
<path d="M170.098 208.18L169.818 197.1L198.553 211.091V222.547L170.098 208.18Z" fill="#F5F5F5"/>
<path d="M198.553 211.091L234.308 193.25V205.645L198.553 222.547V211.091Z" fill="#E0E0E0"/>
<path d="M169.818 197.1L204.918 179.54L234.308 193.25L198.553 211.091L169.818 197.1Z" fill="#F5F5F5"/>
<path d="M173.562 201.889V207.241L176.37 208.556V203.391L173.562 201.889Z" fill="#FAFAFA"/>
<path d="M178.054 203.861V209.213L180.862 210.528V205.363L178.054 203.861Z" fill="#FAFAFA"/>
<path d="M79.5872 138.411V123.95L113.658 140.477V154.093L79.5872 138.411Z" fill="#E0E0E0"/>
<path d="M113.658 140.477L155.965 119.443V134.092L113.658 154.093V140.477Z" fill="#F5F5F5"/>
<path d="M79.5872 123.95L121.146 103.198L155.965 119.443L113.658 140.477L79.5872 123.95Z" fill="#FAFAFA"/>
<path d="M84.08 129.584V135.97L87.4496 137.472V131.369L84.08 129.584Z" fill="#FAFAFA"/>
<path d="M89.4152 132.026V138.318L92.6912 139.82V133.81L89.4152 132.026Z" fill="#FAFAFA"/>
<path d="M182.173 258.699C182.173 259.357 182.173 270.062 182.173 270.062L194.341 276.071V264.334L182.173 258.699Z" fill="#E0E0E0"/>
<path d="M209.785 256.915L194.341 264.334V276.071L209.785 267.338V256.915Z" fill="#E0E0E0"/>
<path d="M182.173 258.699L197.523 251.187L209.785 256.915L194.341 264.333L182.173 258.699Z" fill="#F5F5F5"/>
<path d="M186.478 266.869V272.221L189.286 273.442V268.371L186.478 266.869Z" fill="#FAFAFA"/>
<path d="M84.2672 252.784C84.2672 253.441 84.2672 264.146 84.2672 264.146L96.4352 270.156V258.418L84.2672 252.784Z" fill="#E0E0E0"/>
<path d="M111.879 251L96.3416 258.418V270.155L111.879 261.516V251Z" fill="#E0E0E0"/>
<path d="M84.2672 252.784L99.6176 245.365L111.879 251L96.3416 258.418L84.2672 252.784Z" fill="#F5F5F5"/>
<path d="M88.5728 260.953V266.306L91.3808 267.62V262.456L88.5728 260.953Z" fill="#FAFAFA"/>
<path d="M134.53 177.944C134.53 178.601 134.53 189.306 134.53 189.306L146.698 195.316V183.578L134.53 177.944Z" fill="#F5F5F5"/>
<path d="M162.142 176.16L146.605 183.578V195.316L162.142 186.583V176.16Z" fill="#E0E0E0"/>
<path d="M134.53 177.944L149.881 170.526L162.142 176.16L146.605 183.578L134.53 177.944Z" fill="#F5F5F5"/>
<path d="M138.836 186.114V191.466L141.644 192.687V187.616L138.836 186.114Z" fill="#E0E0E0"/>
<path d="M121.052 275.132L136.402 267.714L148.664 273.348L133.126 280.766L121.052 275.132Z" fill="#F5F5F5"/>
<path d="M138.93 232.595V289.499L154.935 297.762V240.201L138.93 232.595Z" fill="#F5F5F5"/>
<path d="M150.723 227.148L138.93 232.595L154.935 240.201L165.606 234.097L150.723 227.148Z" fill="#FAFAFA"/>
<path d="M154.935 240.201V297.762L164.576 292.88L165.606 234.097L154.935 240.201Z" fill="#E0E0E0"/>
<path d="M203.046 171.089L156.526 150.055L221.298 116.908L242.545 148.741L203.046 171.089Z" fill="#EBEBEB"/>
<path d="M244.417 190.433L244.791 153.999L208.662 174.563L244.417 190.433Z" fill="#E8505B"/>
<path d="M214.278 229.59C215.777 229.59 216.992 228.371 216.992 226.867C216.992 225.363 215.777 224.144 214.278 224.144C212.778 224.144 211.563 225.363 211.563 226.867C211.563 228.371 212.778 229.59 214.278 229.59Z" fill="#E0E0E0"/>
<path d="M214.278 232.97C214.433 232.97 214.558 231.625 214.558 229.966C214.558 228.306 214.433 226.961 214.278 226.961C214.122 226.961 213.997 228.306 213.997 229.966C213.997 231.625 214.122 232.97 214.278 232.97Z" fill="#E0E0E0"/>
<path d="M138.93 222.829C140.429 222.829 141.644 221.61 141.644 220.106C141.644 218.602 140.429 217.383 138.93 217.383C137.43 217.383 136.215 218.602 136.215 220.106C136.215 221.61 137.43 222.829 138.93 222.829Z" fill="#E0E0E0"/>
<path d="M138.93 226.116C139.085 226.116 139.21 224.77 139.21 223.111C139.21 221.451 139.085 220.106 138.93 220.106C138.774 220.106 138.649 221.451 138.649 223.111C138.649 224.77 138.774 226.116 138.93 226.116Z" fill="#E0E0E0"/>
<path d="M102.051 261.516C103.55 261.516 104.766 260.297 104.766 258.793C104.766 257.289 103.55 256.07 102.051 256.07C100.552 256.07 99.3368 257.289 99.3368 258.793C99.3368 260.297 100.552 261.516 102.051 261.516Z" fill="#E0E0E0"/>
<path d="M102.051 264.803C102.206 264.803 102.332 263.458 102.332 261.798C102.332 260.139 102.206 258.793 102.051 258.793C101.896 258.793 101.77 260.139 101.77 261.798C101.77 263.458 101.896 264.803 102.051 264.803Z" fill="#E0E0E0"/>
<path d="M104.859 231.656C106.358 231.656 107.574 230.437 107.574 228.933C107.574 227.429 106.358 226.209 104.859 226.209C103.36 226.209 102.145 227.429 102.145 228.933C102.145 230.437 103.36 231.656 104.859 231.656Z" fill="#E0E0E0"/>
<path d="M104.859 234.942C105.014 234.942 105.14 233.597 105.14 231.937C105.14 230.278 105.014 228.933 104.859 228.933C104.704 228.933 104.578 230.278 104.578 231.937C104.578 233.597 104.704 234.942 104.859 234.942Z" fill="#E0E0E0"/>
<path d="M173 228.933C174.499 228.933 175.714 227.713 175.714 226.209C175.714 224.706 174.499 223.486 173 223.486C171.501 223.486 170.286 224.706 170.286 226.209C170.286 227.713 171.501 228.933 173 228.933Z" fill="#E0E0E0"/>
<path d="M173 232.219C173.155 232.219 173.281 230.874 173.281 229.214C173.281 227.555 173.155 226.209 173 226.209C172.845 226.209 172.719 227.555 172.719 229.214C172.719 230.874 172.845 232.219 173 232.219Z" fill="#E0E0E0"/>
<path d="M216.524 249.685C218.023 249.685 219.238 248.466 219.238 246.962C219.238 245.458 218.023 244.239 216.524 244.239C215.025 244.239 213.81 245.458 213.81 246.962C213.81 248.466 215.025 249.685 216.524 249.685Z" fill="#E0E0E0"/>
<path d="M216.524 252.971C216.679 252.971 216.805 251.626 216.805 249.966C216.805 248.307 216.679 246.962 216.524 246.962C216.369 246.962 216.243 248.307 216.243 249.966C216.243 251.626 216.369 252.971 216.524 252.971Z" fill="#E0E0E0"/>
<path d="M218.302 265.93C219.801 265.93 221.017 264.711 221.017 263.207C221.017 261.703 219.801 260.483 218.302 260.483C216.803 260.483 215.588 261.703 215.588 263.207C215.588 264.711 216.803 265.93 218.302 265.93Z" fill="#E0E0E0"/>
<path d="M218.302 269.31C218.457 269.31 218.583 267.965 218.583 266.305C218.583 264.646 218.457 263.301 218.302 263.301C218.147 263.301 218.022 264.646 218.022 266.305C218.022 267.965 218.147 269.31 218.302 269.31Z" fill="#E0E0E0"/>
<path d="M232.342 261.516C233.841 261.516 235.057 260.297 235.057 258.793C235.057 257.289 233.841 256.07 232.342 256.07C230.843 256.07 229.628 257.289 229.628 258.793C229.628 260.297 230.843 261.516 232.342 261.516Z" fill="#E0E0E0"/>
<path d="M232.342 264.803C232.497 264.803 232.623 263.458 232.623 261.798C232.623 260.139 232.497 258.793 232.342 258.793C232.187 258.793 232.062 260.139 232.062 261.798C232.062 263.458 232.187 264.803 232.342 264.803Z" fill="#E0E0E0"/>
<path d="M224.948 220.012C226.447 220.012 227.662 218.793 227.662 217.289C227.662 215.785 226.447 214.566 224.948 214.566C223.449 214.566 222.234 215.785 222.234 217.289C222.234 218.793 223.449 220.012 224.948 220.012Z" fill="#E0E0E0"/>
<path d="M224.948 223.393C225.103 223.393 225.229 222.047 225.229 220.388C225.229 218.728 225.103 217.383 224.948 217.383C224.793 217.383 224.667 218.728 224.667 220.388C224.667 222.047 224.793 223.393 224.948 223.393Z" fill="#E0E0E0"/>
<path d="M168.975 183.39C170.474 183.39 171.69 182.171 171.69 180.667C171.69 179.163 170.474 177.944 168.975 177.944C167.476 177.944 166.261 179.163 166.261 180.667C166.261 182.171 167.476 183.39 168.975 183.39Z" fill="#E0E0E0"/>
<path d="M168.975 186.771C169.13 186.771 169.256 185.426 169.256 183.766C169.256 182.107 169.13 180.761 168.975 180.761C168.82 180.761 168.694 182.107 168.694 183.766C168.694 185.426 168.82 186.771 168.975 186.771Z" fill="#E0E0E0"/>
<path d="M116.185 235.694C117.684 235.694 118.899 234.474 118.899 232.97C118.899 231.467 117.684 230.247 116.185 230.247C114.686 230.247 113.47 231.467 113.47 232.97C113.47 234.474 114.686 235.694 116.185 235.694Z" fill="#E0E0E0"/>
<path d="M116.185 238.98C116.34 238.98 116.466 237.635 116.466 235.975C116.466 234.316 116.34 232.97 116.185 232.97C116.03 232.97 115.904 234.316 115.904 235.975C115.904 237.635 116.03 238.98 116.185 238.98Z" fill="#E0E0E0"/>
<path d="M148.664 163.671C150.163 163.671 151.378 162.452 151.378 160.948C151.378 159.444 150.163 158.225 148.664 158.225C147.165 158.225 145.95 159.444 145.95 160.948C145.95 162.452 147.165 163.671 148.664 163.671Z" fill="#E0E0E0"/>
<path d="M148.664 166.957C148.819 166.957 148.945 165.612 148.945 163.953C148.945 162.293 148.819 160.948 148.664 160.948C148.509 160.948 148.383 162.293 148.383 163.953C148.383 165.612 148.509 166.957 148.664 166.957Z" fill="#E0E0E0"/>
<path d="M205.011 157.567C206.51 157.567 207.726 156.348 207.726 154.844C207.726 153.34 206.51 152.121 205.011 152.121C203.512 152.121 202.297 153.34 202.297 154.844C202.297 156.348 203.512 157.567 205.011 157.567Z" fill="#E0E0E0"/>
<path d="M205.011 160.948C205.166 160.948 205.292 159.603 205.292 157.943C205.292 156.284 205.166 154.938 205.011 154.938C204.856 154.938 204.73 156.284 204.73 157.943C204.73 159.603 204.856 160.948 205.011 160.948Z" fill="#E0E0E0"/>
<path d="M220.549 155.032C222.048 155.032 223.263 153.813 223.263 152.309C223.263 150.805 222.048 149.586 220.549 149.586C219.05 149.586 217.834 150.805 217.834 152.309C217.834 153.813 219.05 155.032 220.549 155.032Z" fill="#E0E0E0"/>
<path d="M220.549 158.319C220.704 158.319 220.83 156.973 220.83 155.314C220.83 153.654 220.704 152.309 220.549 152.309C220.394 152.309 220.268 153.654 220.268 155.314C220.268 156.973 220.394 158.319 220.549 158.319Z" fill="#E0E0E0"/>
<path d="M214.278 134.562C215.777 134.562 216.992 133.342 216.992 131.838C216.992 130.334 215.777 129.115 214.278 129.115C212.778 129.115 211.563 130.334 211.563 131.838C211.563 133.342 212.778 134.562 214.278 134.562Z" fill="#E0E0E0"/>
<path d="M214.278 137.942C214.433 137.942 214.558 136.597 214.558 134.937C214.558 133.278 214.433 131.932 214.278 131.932C214.122 131.932 213.997 133.278 213.997 134.937C213.997 136.597 214.122 137.942 214.278 137.942Z" fill="#E0E0E0"/>
<path d="M127.604 181.7C129.103 181.7 130.318 180.481 130.318 178.977C130.318 177.473 129.103 176.254 127.604 176.254C126.105 176.254 124.89 177.473 124.89 178.977C124.89 180.481 126.105 181.7 127.604 181.7Z" fill="#E0E0E0"/>
<path d="M127.604 184.987C127.759 184.987 127.885 183.641 127.885 181.982C127.885 180.322 127.759 178.977 127.604 178.977C127.449 178.977 127.323 180.322 127.323 181.982C127.323 183.641 127.449 184.987 127.604 184.987Z" fill="#E0E0E0"/>
<path d="M191.72 155.501C193.219 155.501 194.434 154.282 194.434 152.778C194.434 151.274 193.219 150.055 191.72 150.055C190.221 150.055 189.006 151.274 189.006 152.778C189.006 154.282 190.221 155.501 191.72 155.501Z" fill="#E0E0E0"/>
<path d="M191.72 158.788C191.875 158.788 192.001 157.443 192.001 155.783C192.001 154.124 191.875 152.778 191.72 152.778C191.565 152.778 191.439 154.124 191.439 155.783C191.439 157.443 191.565 158.788 191.72 158.788Z" fill="#E0E0E0"/>
<path d="M114.219 93.0569C115.718 93.0569 116.934 91.8377 116.934 90.3337C116.934 88.8298 115.718 87.6106 114.219 87.6106C112.72 87.6106 111.505 88.8298 111.505 90.3337C111.505 91.8377 112.72 93.0569 114.219 93.0569Z" fill="#E0E0E0"/>
<path d="M114.219 96.4374C114.374 96.4374 114.5 95.0921 114.5 93.4326C114.5 91.7731 114.374 90.4277 114.219 90.4277C114.064 90.4277 113.938 91.7731 113.938 93.4326C113.938 95.0921 114.064 96.4374 114.219 96.4374Z" fill="#E0E0E0"/>
<path d="M145.856 108.269C147.355 108.269 148.57 107.05 148.57 105.546C148.57 104.042 147.355 102.823 145.856 102.823C144.357 102.823 143.142 104.042 143.142 105.546C143.142 107.05 144.357 108.269 145.856 108.269Z" fill="#E0E0E0"/>
<path d="M145.856 111.556C146.011 111.556 146.137 110.21 146.137 108.551C146.137 106.891 146.011 105.546 145.856 105.546C145.701 105.546 145.575 106.891 145.575 108.551C145.575 110.21 145.701 111.556 145.856 111.556Z" fill="#E0E0E0"/>
<path d="M95.4992 156.159C96.9983 156.159 98.2136 154.94 98.2136 153.436C98.2136 151.932 96.9983 150.713 95.4992 150.713C94 150.713 92.7848 151.932 92.7848 153.436C92.7848 154.94 94 156.159 95.4992 156.159Z" fill="#E0E0E0"/>
<path d="M95.4992 159.446C95.6542 159.446 95.78 158.1 95.78 156.441C95.78 154.781 95.6542 153.436 95.4992 153.436C95.3441 153.436 95.2184 154.781 95.2184 156.441C95.2184 158.1 95.3441 159.446 95.4992 159.446Z" fill="#E0E0E0"/>
<path d="M98.3072 110.992C99.8063 110.992 101.022 109.773 101.022 108.269C101.022 106.765 99.8063 105.546 98.3072 105.546C96.808 105.546 95.5928 106.765 95.5928 108.269C95.5928 109.773 96.808 110.992 98.3072 110.992Z" fill="#E0E0E0"/>
<path d="M98.3072 114.373C98.4623 114.373 98.588 113.027 98.588 111.368C98.588 109.708 98.4623 108.363 98.3072 108.363C98.1521 108.363 98.0264 109.708 98.0264 111.368C98.0264 113.027 98.1521 114.373 98.3072 114.373Z" fill="#E0E0E0"/>
<path d="M219.894 237.478L242.638 225.364L242.545 247.149L219.894 237.478Z" fill="#EBEBEB"/>
<path d="M228.973 112.776L244.885 117.659V142.731L228.973 112.776Z" fill="#EBEBEB"/>
<path d="M244.978 79.2534L244.885 51.8342C243.574 42.2562 235.431 34.838 225.51 34.7441L200.425 34.6502C197.055 34.6502 194.341 37.4672 194.341 41.0355V45.6367C194.341 49.2049 191.626 52.022 188.257 52.022L139.304 51.6464C135.934 51.6464 133.22 48.7354 133.22 45.2611V40.6599C133.22 37.0916 130.506 34.2746 127.136 34.2746H118.338L96.4351 34.1807C91.2871 34.1807 86.6071 36.1526 83.0503 39.3453C80.8039 43.5708 78.4639 49.6744 79.5871 54.2756L244.791 108.269L244.978 79.2534Z" fill="#E8505B"/>
<path opacity="0.7" d="M244.978 79.2534L244.885 51.8342C243.574 42.2562 235.431 34.838 225.51 34.7441L200.425 34.6502C197.055 34.6502 194.341 37.4672 194.341 41.0355V45.6367C194.341 49.2049 191.626 52.022 188.257 52.022L139.304 51.6464C135.934 51.6464 133.22 48.7354 133.22 45.2611V40.6599C133.22 37.0916 130.506 34.2746 127.136 34.2746H118.338L96.4351 34.1807C91.2871 34.1807 86.6071 36.1526 83.0503 39.3453C80.8039 43.5708 78.4639 49.6744 79.5871 54.2756L244.791 108.269L244.978 79.2534Z" fill="white"/>
<path d="M225.51 34.744C225.51 34.744 225.697 34.744 226.165 34.744C226.633 34.744 227.288 34.744 228.13 34.9318C229.909 35.1196 232.53 35.683 235.525 37.561C237.022 38.4061 238.52 39.6269 240.018 41.2232C241.422 42.8195 242.826 44.7915 243.762 47.139C244.698 49.4865 245.259 52.2097 245.166 55.2145C245.166 58.1255 245.166 61.2242 245.166 64.5108C245.072 90.8972 244.978 129.021 244.791 176.16C244.604 223.298 244.417 279.358 244.136 341.708C244.136 349.502 244.042 357.39 244.042 365.372C244.042 367.344 244.042 369.409 244.042 371.381C244.042 373.353 243.855 375.419 243.294 377.391C242.732 379.363 241.89 381.241 240.766 382.931C239.643 384.621 238.239 386.124 236.648 387.438C233.466 389.974 229.441 391.664 225.229 391.852C224.199 391.946 223.17 391.946 222.14 391.946H219.051C216.992 391.946 214.933 391.946 212.874 391.946C204.543 391.946 196.213 391.852 187.789 391.852C170.941 391.758 153.718 391.664 136.215 391.57C127.51 391.57 118.712 391.476 109.82 391.476C105.421 391.476 100.928 391.476 96.5287 391.382C92.0359 391.57 87.4495 390.349 83.7055 387.814C79.9615 385.185 77.2471 381.335 75.9367 377.015C75.2815 374.856 75.0943 372.508 75.1879 370.348C75.1879 368.095 75.1879 365.935 75.1879 363.681C75.1879 354.761 75.2815 346.028 75.2815 337.201C75.3751 319.735 75.4687 302.457 75.4687 285.461C75.6559 251.563 75.7495 218.885 75.9367 187.71C76.0303 156.534 76.2175 126.955 76.3111 99.2544C76.4047 85.357 76.4047 72.0229 76.4983 59.1584C76.4983 57.5621 76.4983 55.9658 76.4983 54.3694C76.4983 53.6182 76.5919 52.7731 76.5919 51.928C76.7791 51.1768 76.7791 50.3317 76.9663 49.5804C77.7151 46.4817 79.1191 43.5707 81.1783 41.2232C83.2375 38.8757 85.7647 36.9976 88.4791 35.7769C91.2871 34.5562 94.2823 34.0867 97.2775 34.1806C103.174 34.1806 108.884 34.2745 114.5 34.2745C117.308 34.2745 120.022 34.2745 122.737 34.2745C124.141 34.2745 125.451 34.2745 126.762 34.2745C128.072 34.1806 129.476 34.5562 130.599 35.4013C131.722 36.1525 132.565 37.2793 133.033 38.594C133.501 39.9086 133.407 41.2232 133.407 42.5378C133.407 43.1951 133.407 43.8524 133.407 44.5098C133.407 45.1671 133.407 45.8244 133.501 46.3878C133.688 47.6085 134.156 48.8292 134.998 49.6743C135.747 50.6134 136.87 51.2707 137.994 51.5524C138.555 51.7402 139.117 51.7402 139.772 51.7402C140.334 51.7402 140.989 51.7402 141.55 51.7402C143.984 51.7402 146.324 51.7402 148.664 51.7402C158.024 51.8341 166.635 51.8341 174.685 51.8341C178.71 51.8341 182.547 51.8341 186.104 51.928C187.04 51.928 187.882 52.0219 188.818 51.928C189.661 51.8341 190.503 51.5524 191.252 51.0829C192.75 50.1439 193.686 48.6414 194.06 47.139C194.247 46.3878 194.247 45.5427 194.247 44.6976C194.247 43.8524 194.247 43.1012 194.247 42.35C194.247 41.5988 194.247 40.8476 194.341 40.0025C194.434 39.2513 194.715 38.5001 195.09 37.9366C195.838 36.622 196.962 35.683 198.272 35.1196C199.582 34.5562 200.986 34.744 202.203 34.744C207.258 34.744 211.563 34.8379 215.026 34.8379C218.49 34.8379 221.11 34.9318 222.889 34.9318C224.574 34.744 225.51 34.744 225.51 34.744C225.51 34.744 224.574 34.744 222.795 34.744C221.017 34.744 218.396 34.744 214.933 34.744C211.47 34.744 207.164 34.744 202.11 34.744C200.893 34.744 199.489 34.5562 198.272 35.1196C197.055 35.5891 195.932 36.5281 195.183 37.8427C194.809 38.5001 194.622 39.1574 194.434 39.9086C194.341 40.6598 194.341 41.411 194.341 42.1622C194.341 42.9134 194.341 43.7585 194.341 44.5098C194.341 45.261 194.341 46.1061 194.154 46.9512C193.779 48.5475 192.75 50.1439 191.252 51.0829C190.503 51.5524 189.661 51.8341 188.725 51.928C187.789 52.0219 186.946 51.928 186.01 51.928C182.36 51.928 178.522 51.928 174.591 51.928C166.635 51.928 157.93 51.8341 148.57 51.8341C146.23 51.8341 143.89 51.8341 141.457 51.8341C140.895 51.8341 140.24 51.8341 139.678 51.8341C139.117 51.8341 138.462 51.8341 137.806 51.6463C136.59 51.3646 135.466 50.6134 134.624 49.6743C133.782 48.7353 133.22 47.5146 133.126 46.2C133.033 45.5427 133.033 44.8854 133.033 44.228C133.033 43.5707 133.033 42.9134 133.033 42.2561C133.033 40.9415 133.126 39.6269 132.658 38.5001C132.284 37.2793 131.442 36.2464 130.412 35.4952C129.382 34.744 128.072 34.3684 126.762 34.4623C125.451 34.4623 124.047 34.4623 122.737 34.4623C120.022 34.4623 117.214 34.4623 114.5 34.4623C108.884 34.4623 103.174 34.4623 97.2775 34.3684C94.3759 34.3684 91.3807 34.744 88.6663 35.9647C85.9519 37.1854 83.4247 38.9696 81.4591 41.3171C79.4935 43.6646 78.0895 46.4817 77.3407 49.4865C77.1535 50.2378 77.0599 50.989 76.9663 51.8341C76.9663 52.5853 76.8727 53.4304 76.8727 54.1816C76.8727 55.7779 76.8727 57.3743 76.8727 58.9706C76.7791 71.8351 76.7791 85.1692 76.6855 99.0666C76.5919 126.768 76.4983 156.347 76.3111 187.522C76.2175 218.697 76.0303 251.375 75.9367 285.273C75.8431 302.27 75.7495 319.454 75.7495 337.013C75.7495 345.746 75.6559 354.573 75.6559 363.494C75.6559 365.747 75.6559 367.907 75.6559 370.161C75.6559 372.414 75.7495 374.574 76.4047 376.734C77.6215 380.959 80.3359 384.809 83.9863 387.345C87.6367 389.88 92.1295 391.101 96.5287 390.819C101.022 390.819 105.421 390.819 109.82 390.913C118.712 390.913 127.417 391.007 136.215 391.007C153.625 391.101 170.847 391.195 187.789 391.288C196.213 391.288 204.637 391.382 212.874 391.382C214.933 391.382 216.992 391.382 219.051 391.382H222.14C223.17 391.382 224.199 391.382 225.229 391.382C229.254 391.194 233.185 389.598 236.367 387.063C237.958 385.748 239.269 384.246 240.392 382.649C241.515 380.959 242.264 379.175 242.826 377.203C243.387 375.325 243.574 373.259 243.574 371.287C243.574 369.315 243.574 367.25 243.574 365.278C243.574 357.296 243.668 349.408 243.668 341.614C243.949 279.358 244.23 223.205 244.417 176.066C244.604 128.927 244.791 90.8032 244.978 64.4169C244.978 61.1303 244.978 58.0316 245.072 55.1206C245.072 52.2097 244.604 49.4865 243.668 47.139C242.732 44.7915 241.422 42.8195 240.018 41.2232C238.614 39.6269 237.116 38.4061 235.618 37.561C232.623 35.7769 230.002 35.1196 228.318 34.9318C227.475 34.744 226.726 34.8379 226.352 34.744C225.697 34.744 225.51 34.744 225.51 34.744Z" fill="#263238"/>
</g>
<path d="M330.408 270.718C330.408 270.812 261.269 271 176.003 271C90.6666 271 21.528 270.906 21.528 270.718C21.528 270.624 90.6666 270.437 175.933 270.437C261.269 270.53 330.408 270.624 330.408 270.718Z" fill="#263238"/>
<defs>
<clipPath id="clip0_237_2279">
<rect width="351" height="270.437" fill="white"/>
</clipPath>
</defs>
</svg>
